{
    "asset" : {
        "generator" : "Khronos glTF Blender I/O v1.3.48",
        "version" : "2.0"
    },
    "scene" : 0,
    "scenes" : [
        {
            "name" : "Scene",
            "nodes" : [
                0,
                1,
                2,
                3,
                4
            ]
        }
    ],
    "nodes" : [
        {
            "name" : "Light",
            "rotation" : [
                0.16907575726509094,
                0.7558803558349609,
                -0.27217137813568115,
                0.570947527885437
            ],
            "translation" : [
                4.076245307922363,
                5.903861999511719,
                -1.0054539442062378
            ]
        },
        {
            "name" : "Camera",
            "rotation" : [
                0.483536034822464,
                0.33687159419059753,
                -0.20870360732078552,
                0.7804827094078064
            ],
            "translation" : [
                7.358891487121582,
                4.958309173583984,
                6.925790786743164
            ]
        },
        {
            "mesh" : 0,
            "name" : "Text",
            "translation" : [
                -3.696607828140259,
                0,
                0
            ]
        },
        {
            "mesh" : 1,
            "name" : "medicine_bottle_v1",
            "rotation" : [
                -0.7071068286895752,
                0,
                0,
                -0.7071068286895752
            ],
            "scale" : [
                0.4821603000164032,
                0.4821603000164032,
                0.4821603000164032
            ],
            "translation" : [
                0.47707727551460266,
                0.00031457594013772905,
                -0.9405974745750427
            ]
        },
        {
            "mesh" : 2,
            "name" : "Text.001",
            "scale" : [
                0.7629591822624207,
                0.7629591822624207,
                0.7629591822624207
            ],
            "translation" : [
                -1.726318120956421,
                0,
                -1.145572543144226
            ]
        }
    ],
    "materials" : [
        {
            "doubleSided" : true,
            "emissiveFactor" : [
                0,
                0,
                0
            ],
            "name" : "Material.002",
            "pbrMetallicRoughness" : {
                "baseColorFactor" : [
                    0.8000000715255737,
                    0.23589783906936646,
                    0.003638347378000617,
                    1
                ],
                "metallicFactor" : 0,
                "roughnessFactor" : 0.5
            }
        },
        {
            "doubleSided" : true,
            "emissiveFactor" : [
                0,
                0,
                0
            ],
            "name" : "medicinebottlev1_blinn",
            "pbrMetallicRoughness" : {
                "baseColorTexture" : {
                    "index" : 0,
                    "texCoord" : 0
                },
                "metallicFactor" : 0.5,
                "roughnessFactor" : 0.7487671971321106
            }
        },
        {
            "doubleSided" : true,
            "emissiveFactor" : [
                0,
                0,
                0
            ],
            "name" : "Material.009",
            "pbrMetallicRoughness" : {
                "baseColorFactor" : [
                    0.8000000715255737,
                    0.27957388758659363,
                    0.4985229969024658,
                    1
                ],
                "metallicFactor" : 0,
                "roughnessFactor" : 0.5
            }
        }
    ],
    "meshes" : [
        {
            "name" : "Text",
            "primitives" : [
                {
                    "attributes" : {
                        "POSITION" : 0,
                        "NORMAL" : 1,
                        "TEXCOORD_0" : 2
                    },
                    "indices" : 3,
                    "material" : 0
                }
            ]
        },
        {
            "name" : "Mesh.001",
            "primitives" : [
                {
                    "attributes" : {
                        "POSITION" : 4,
                        "NORMAL" : 5,
                        "TEXCOORD_0" : 6
                    },
                    "indices" : 7,
                    "material" : 1
                }
            ]
        },
        {
            "name" : "Text.004",
            "primitives" : [
                {
                    "attributes" : {
                        "POSITION" : 8,
                        "NORMAL" : 9,
                        "TEXCOORD_0" : 10
                    },
                    "indices" : 11,
                    "material" : 2
                }
            ]
        }
    ],
    "textures" : [
        {
            "source" : 0
        }
    ],
    "images" : [
        {
            "bufferView" : 8,
            "mimeType" : "image/png",
            "name" : "out_uv_v2_medicinebottlev1"
        }
    ],
    "accessors" : [
        {
            "bufferView" : 0,
            "componentType" : 5126,
            "count" : 7425,
            "max" : [
                6.935999870300293,
                0.03999999165534973,
                0.009000000543892384
            ],
            "min" : [
                0.01600000075995922,
                -0.03999999165534973,
                -0.6910000443458557
            ],
            "type" : "VEC3"
        },
        {
            "bufferView" : 1,
            "componentType" : 5126,
            "count" : 7425,
            "type" : "VEC3"
        },
        {
            "bufferView" : 2,
            "componentType" : 5126,
            "count" : 7425,
            "type" : "VEC2"
        },
        {
            "bufferView" : 3,
            "componentType" : 5123,
            "count" : 13536,
            "type" : "SCALAR"
        },
        {
            "bufferView" : 4,
            "componentType" : 5126,
            "count" : 1837,
            "max" : [
                0.4229893088340759,
                0.00014467677101492882,
                0.42187726497650146
            ],
            "min" : [
                -0.42374473810195923,
                -1.96298086643219,
                -0.4244840741157532
            ],
            "type" : "VEC3"
        },
        {
            "bufferView" : 5,
            "componentType" : 5126,
            "count" : 1837,
            "type" : "VEC3"
        },
        {
            "bufferView" : 6,
            "componentType" : 5126,
            "count" : 1837,
            "type" : "VEC2"
        },
        {
            "bufferView" : 7,
            "componentType" : 5123,
            "count" : 7872,
            "type" : "SCALAR"
        },
        {
            "bufferView" : 9,
            "componentType" : 5126,
            "count" : 3678,
            "max" : [
                2.0250000953674316,
                0.03999999165534973,
                0.23000000417232513
            ],
            "min" : [
                0.06000000238418579,
                -0.03999999165534973,
                -0.6380000114440918
            ],
            "type" : "VEC3"
        },
        {
            "bufferView" : 10,
            "componentType" : 5126,
            "count" : 3678,
            "type" : "VEC3"
        },
        {
            "bufferView" : 11,
            "componentType" : 5126,
            "count" : 3678,
            "type" : "VEC2"
        },
        {
            "bufferView" : 12,
            "componentType" : 5123,
            "count" : 6612,
            "type" : "SCALAR"
        }
    ],
    "bufferViews" : [
        {
            "buffer" : 0,
            "byteLength" : 89100,
            "byteOffset" : 0
        },
        {
            "buffer" : 0,
            "byteLength" : 89100,
            "byteOffset" : 89100
        },
        {
            "buffer" : 0,
            "byteLength" : 59400,
            "byteOffset" : 178200
        },
        {
            "buffer" : 0,
            "byteLength" : 27072,
            "byteOffset" : 237600
        },
        {
            "buffer" : 0,
            "byteLength" : 22044,
            "byteOffset" : 264672
        },
        {
            "buffer" : 0,
            "byteLength" : 22044,
            "byteOffset" : 286716
        },
        {
            "buffer" : 0,
            "byteLength" : 14696,
            "byteOffset" : 308760
        },
        {
            "buffer" : 0,
            "byteLength" : 15744,
            "byteOffset" : 323456
        },
        {
            "buffer" : 0,
            "byteLength" : 82508,
            "byteOffset" : 339200
        },
        {
            "buffer" : 0,
            "byteLength" : 44136,
            "byteOffset" : 421708
        },
        {
            "buffer" : 0,
            "byteLength" : 44136,
            "byteOffset" : 465844
        },
        {
            "buffer" : 0,
            "byteLength" : 29424,
            "byteOffset" : 509980
        },
        {
            "buffer" : 0,
            "byteLength" : 13224,
            "byteOffset" : 539404
        }
    ],
    "buffers" : [
        {
            "byteLength" : 552628,
            "uri" : "data:application/octet-stream;base64,"
        }
    ]
}
