{
    "asset" : {
        "generator" : "Khronos glTF Blender I/O v1.3.48",
        "version" : "2.0"
    },
    "scene" : 0,
    "scenes" : [
        {
            "name" : "Scene",
            "nodes" : [
                0,
                1,
                2,
                3,
                4
            ]
        }
    ],
    "nodes" : [
        {
            "name" : "Light",
            "rotation" : [
                0.16907575726509094,
                0.7558803558349609,
                -0.27217137813568115,
                0.570947527885437
            ],
            "translation" : [
                4.076245307922363,
                5.903861999511719,
                -1.0054539442062378
            ]
        },
        {
            "name" : "Camera",
            "rotation" : [
                0.483536034822464,
                0.33687159419059753,
                -0.20870360732078552,
                0.7804827094078064
            ],
            "translation" : [
                7.358891487121582,
                4.958309173583984,
                6.925790786743164
            ]
        },
        {
            "mesh" : 0,
            "name" : "Text",
            "translation" : [
                -4.188056468963623,
                0,
                0
            ]
        },
        {
            "mesh" : 1,
            "name" : "Text.001",
            "scale" : [
                0.6864103078842163,
                0.6864103078842163,
                0.6864103078842163
            ],
            "translation" : [
                -2.4401535987854004,
                0,
                -1.0073260068893433
            ]
        },
        {
            "mesh" : 2,
            "name" : "Box002",
            "rotation" : [
                -0.5016708374023438,
                -0.5474775433540344,
                0.4938077926635742,
                0.45249152183532715
            ],
            "scale" : [
                0.02539999969303608,
                0.02539999969303608,
                0.02539999969303608
            ],
            "translation" : [
                0.6682848930358887,
                0.07344251126050949,
                -0.8937510848045349
            ]
        }
    ],
    "materials" : [
        {
            "doubleSided" : true,
            "emissiveFactor" : [
                0,
                0,
                0
            ],
            "name" : "Material.002",
            "pbrMetallicRoughness" : {
                "baseColorFactor" : [
                    0.6595708131790161,
                    0.8000000715255737,
                    0.46450579166412354,
                    1
                ],
                "metallicFactor" : 0,
                "roughnessFactor" : 0.5
            }
        },
        {
            "doubleSided" : true,
            "emissiveFactor" : [
                0,
                0,
                0
            ],
            "name" : "Material.005",
            "pbrMetallicRoughness" : {
                "baseColorFactor" : [
                    0.08795282244682312,
                    0.29044634103775024,
                    0.8000000715255737,
                    1
                ],
                "metallicFactor" : 0,
                "roughnessFactor" : 0.5
            }
        },
        {
            "doubleSided" : true,
            "emissiveFactor" : [
                0,
                0,
                0
            ],
            "name" : "Material.008",
            "pbrMetallicRoughness" : {
                "baseColorFactor" : [
                    0.2797498404979706,
                    0.8000000715255737,
                    0.2098236083984375,
                    1
                ],
                "metallicFactor" : 0,
                "roughnessFactor" : 0.5
            }
        }
    ],
    "meshes" : [
        {
            "name" : "Text",
            "primitives" : [
                {
                    "attributes" : {
                        "POSITION" : 0,
                        "NORMAL" : 1,
                        "TEXCOORD_0" : 2
                    },
                    "indices" : 3,
                    "material" : 0
                }
            ]
        },
        {
            "name" : "Text.003",
            "primitives" : [
                {
                    "attributes" : {
                        "POSITION" : 4,
                        "NORMAL" : 5,
                        "TEXCOORD_0" : 6
                    },
                    "indices" : 7,
                    "material" : 1
                }
            ]
        },
        {
            "name" : "Mesh",
            "primitives" : [
                {
                    "attributes" : {
                        "POSITION" : 8,
                        "NORMAL" : 9,
                        "TEXCOORD_0" : 10
                    },
                    "indices" : 11,
                    "material" : 2
                }
            ]
        }
    ],
    "accessors" : [
        {
            "bufferView" : 0,
            "componentType" : 5126,
            "count" : 11945,
            "max" : [
                7.849000930786133,
                0.03999999165534973,
                0.23000000417232513
            ],
            "min" : [
                0.04100000113248825,
                -0.03999999165534973,
                -0.6910000443458557
            ],
            "type" : "VEC3"
        },
        {
            "bufferView" : 1,
            "componentType" : 5126,
            "count" : 11945,
            "type" : "VEC3"
        },
        {
            "bufferView" : 2,
            "componentType" : 5126,
            "count" : 11945,
            "type" : "VEC2"
        },
        {
            "bufferView" : 3,
            "componentType" : 5123,
            "count" : 21804,
            "type" : "SCALAR"
        },
        {
            "bufferView" : 4,
            "componentType" : 5126,
            "count" : 5452,
            "max" : [
                3.1120002269744873,
                0.03999999165534973,
                0.009000000543892384
            ],
            "min" : [
                0.04100000113248825,
                -0.03999999165534973,
                -0.4580000340938568
            ],
            "type" : "VEC3"
        },
        {
            "bufferView" : 5,
            "componentType" : 5126,
            "count" : 5452,
            "type" : "VEC3"
        },
        {
            "bufferView" : 6,
            "componentType" : 5126,
            "count" : 5452,
            "type" : "VEC2"
        },
        {
            "bufferView" : 7,
            "componentType" : 5123,
            "count" : 9828,
            "type" : "SCALAR"
        },
        {
            "bufferView" : 8,
            "componentType" : 5126,
            "count" : 202,
            "max" : [
                7.883905410766602,
                36.12644958496094,
                16.2342586517334
            ],
            "min" : [
                -15.793940544128418,
                -6.929037094116211,
                -16.2342586517334
            ],
            "type" : "VEC3"
        },
        {
            "bufferView" : 9,
            "componentType" : 5126,
            "count" : 202,
            "type" : "VEC3"
        },
        {
            "bufferView" : 10,
            "componentType" : 5126,
            "count" : 202,
            "type" : "VEC2"
        },
        {
            "bufferView" : 11,
            "componentType" : 5123,
            "count" : 768,
            "type" : "SCALAR"
        }
    ],
    "bufferViews" : [
        {
            "buffer" : 0,
            "byteLength" : 143340,
            "byteOffset" : 0
        },
        {
            "buffer" : 0,
            "byteLength" : 143340,
            "byteOffset" : 143340
        },
        {
            "buffer" : 0,
            "byteLength" : 95560,
            "byteOffset" : 286680
        },
        {
            "buffer" : 0,
            "byteLength" : 43608,
            "byteOffset" : 382240
        },
        {
            "buffer" : 0,
            "byteLength" : 65424,
            "byteOffset" : 425848
        },
        {
            "buffer" : 0,
            "byteLength" : 65424,
            "byteOffset" : 491272
        },
        {
            "buffer" : 0,
            "byteLength" : 43616,
            "byteOffset" : 556696
        },
        {
            "buffer" : 0,
            "byteLength" : 19656,
            "byteOffset" : 600312
        },
        {
            "buffer" : 0,
            "byteLength" : 2424,
            "byteOffset" : 619968
        },
        {
            "buffer" : 0,
            "byteLength" : 2424,
            "byteOffset" : 622392
        },
        {
            "buffer" : 0,
            "byteLength" : 1616,
            "byteOffset" : 624816
        },
        {
            "buffer" : 0,
            "byteLength" : 1536,
            "byteOffset" : 626432
        }
    ],
    "buffers" : [
        {
            "byteLength" : 627968,
            "uri" : "data:application/octet-stream;base64,"
        }
    ]
}
