{
    "asset" : {
        "generator" : "Khronos glTF Blender I/O v1.3.48",
        "version" : "2.0"
    },
    "scene" : 0,
    "scenes" : [
        {
            "name" : "Scene",
            "nodes" : [
                0,
                1,
                2,
                3,
                4,
                5,
                6
            ]
        }
    ],
    "nodes" : [
        {
            "name" : "Light",
            "rotation" : [
                0.16907575726509094,
                0.7558803558349609,
                -0.27217137813568115,
                0.570947527885437
            ],
            "translation" : [
                4.076245307922363,
                5.903861999511719,
                -1.0054539442062378
            ]
        },
        {
            "name" : "Camera",
            "rotation" : [
                0.483536034822464,
                0.33687159419059753,
                -0.20870360732078552,
                0.7804827094078064
            ],
            "translation" : [
                7.358891487121582,
                4.958309173583984,
                6.925790786743164
            ]
        },
        {
            "mesh" : 0,
            "name" : "Text",
            "translation" : [
                -4.41306209564209,
                0,
                0
            ]
        },
        {
            "mesh" : 1,
            "name" : "Text.001",
            "scale" : [
                0.6864103078842163,
                0.6864103078842163,
                0.6864103078842163
            ],
            "translation" : [
                -2.4401535987854004,
                0,
                -1.0073260068893433
            ]
        },
        {
            "mesh" : 2,
            "name" : "Cylinder.001_Cylinder.017",
            "scale" : [
                0.35973748564720154,
                0.35973748564720154,
                0.35973748564720154
            ],
            "translation" : [
                2.418320655822754,
                0,
                -1.1701841354370117
            ]
        },
        {
            "mesh" : 3,
            "name" : "Cylinder.000_Cylinder.015",
            "scale" : [
                0.35973748564720154,
                0.35973748564720154,
                0.35973748564720154
            ],
            "translation" : [
                2.418320655822754,
                0,
                -1.1701841354370117
            ]
        },
        {
            "mesh" : 4,
            "name" : "Cube_Cube.001",
            "scale" : [
                0.35973748564720154,
                0.35973748564720154,
                0.35973748564720154
            ],
            "translation" : [
                2.418320655822754,
                0,
                -1.1701841354370117
            ]
        }
    ],
    "materials" : [
        {
            "doubleSided" : true,
            "emissiveFactor" : [
                0,
                0,
                0
            ],
            "name" : "Material.002",
            "pbrMetallicRoughness" : {
                "baseColorFactor" : [
                    0.8000000715255737,
                    0.09433658421039581,
                    0.7722208499908447,
                    1
                ],
                "metallicFactor" : 0,
                "roughnessFactor" : 0.5
            }
        },
        {
            "doubleSided" : true,
            "emissiveFactor" : [
                0,
                0,
                0
            ],
            "name" : "Material.005",
            "pbrMetallicRoughness" : {
                "baseColorFactor" : [
                    0.08795282244682312,
                    0.29044634103775024,
                    0.8000000715255737,
                    1
                ],
                "metallicFactor" : 0,
                "roughnessFactor" : 0.5
            }
        },
        {
            "doubleSided" : true,
            "emissiveFactor" : [
                0,
                0,
                0
            ],
            "name" : "Material.006",
            "pbrMetallicRoughness" : {
                "baseColorFactor" : [
                    0.6399999856948853,
                    0.6399999856948853,
                    0.6399999856948853,
                    1
                ],
                "metallicFactor" : 0,
                "roughnessFactor" : 0.6732679605484009
            }
        },
        {
            "doubleSided" : true,
            "emissiveFactor" : [
                0,
                0,
                0
            ],
            "name" : "Material.007",
            "pbrMetallicRoughness" : {
                "baseColorFactor" : [
                    0.6399999856948853,
                    0.6399999856948853,
                    0.6399999856948853,
                    1
                ],
                "metallicFactor" : 0,
                "roughnessFactor" : 0.6732679605484009
            }
        }
    ],
    "meshes" : [
        {
            "name" : "Text",
            "primitives" : [
                {
                    "attributes" : {
                        "POSITION" : 0,
                        "NORMAL" : 1,
                        "TEXCOORD_0" : 2
                    },
                    "indices" : 3,
                    "material" : 0
                }
            ]
        },
        {
            "name" : "Text.003",
            "primitives" : [
                {
                    "attributes" : {
                        "POSITION" : 4,
                        "NORMAL" : 5,
                        "TEXCOORD_0" : 6
                    },
                    "indices" : 7,
                    "material" : 1
                }
            ]
        },
        {
            "name" : "Cylinder.001_Cylinder.017",
            "primitives" : [
                {
                    "attributes" : {
                        "POSITION" : 8,
                        "NORMAL" : 9,
                        "TEXCOORD_0" : 10
                    },
                    "indices" : 11,
                    "material" : 2
                }
            ]
        },
        {
            "name" : "Cylinder.000_Cylinder.015",
            "primitives" : [
                {
                    "attributes" : {
                        "POSITION" : 12,
                        "NORMAL" : 13,
                        "TEXCOORD_0" : 14
                    },
                    "indices" : 11,
                    "material" : 2
                }
            ]
        },
        {
            "name" : "Cube_Cube.001",
            "primitives" : [
                {
                    "attributes" : {
                        "POSITION" : 15,
                        "NORMAL" : 16,
                        "TEXCOORD_0" : 17
                    },
                    "indices" : 18,
                    "material" : 3
                }
            ]
        }
    ],
    "accessors" : [
        {
            "bufferView" : 0,
            "componentType" : 5126,
            "count" : 9132,
            "max" : [
                8.479000091552734,
                0.03999999165534973,
                0.23000000417232513
            ],
            "min" : [
                0.20200000703334808,
                -0.03999999165534973,
                -0.6910000443458557
            ],
            "type" : "VEC3"
        },
        {
            "bufferView" : 1,
            "componentType" : 5126,
            "count" : 9132,
            "type" : "VEC3"
        },
        {
            "bufferView" : 2,
            "componentType" : 5126,
            "count" : 9132,
            "type" : "VEC2"
        },
        {
            "bufferView" : 3,
            "componentType" : 5123,
            "count" : 16680,
            "type" : "SCALAR"
        },
        {
            "bufferView" : 4,
            "componentType" : 5126,
            "count" : 5452,
            "max" : [
                3.1120002269744873,
                0.03999999165534973,
                0.009000000543892384
            ],
            "min" : [
                0.04100000113248825,
                -0.03999999165534973,
                -0.4580000340938568
            ],
            "type" : "VEC3"
        },
        {
            "bufferView" : 5,
            "componentType" : 5126,
            "count" : 5452,
            "type" : "VEC3"
        },
        {
            "bufferView" : 6,
            "componentType" : 5126,
            "count" : 5452,
            "type" : "VEC2"
        },
        {
            "bufferView" : 7,
            "componentType" : 5123,
            "count" : 9828,
            "type" : "SCALAR"
        },
        {
            "bufferView" : 8,
            "componentType" : 5126,
            "count" : 396,
            "max" : [
                -4.129422187805176,
                0.6292840242385864,
                1.0151560306549072
            ],
            "min" : [
                -4.980713844299316,
                -1.5504319667816162,
                0.17679700255393982
            ],
            "type" : "VEC3"
        },
        {
            "bufferView" : 9,
            "componentType" : 5126,
            "count" : 396,
            "type" : "VEC3"
        },
        {
            "bufferView" : 10,
            "componentType" : 5126,
            "count" : 396,
            "type" : "VEC2"
        },
        {
            "bufferView" : 11,
            "componentType" : 5123,
            "count" : 624,
            "type" : "SCALAR"
        },
        {
            "bufferView" : 12,
            "componentType" : 5126,
            "count" : 396,
            "max" : [
                -1.1353780031204224,
                0.6292840242385864,
                1.0151560306549072
            ],
            "min" : [
                -1.986670970916748,
                -1.5504319667816162,
                0.17679700255393982
            ],
            "type" : "VEC3"
        },
        {
            "bufferView" : 13,
            "componentType" : 5126,
            "count" : 396,
            "type" : "VEC3"
        },
        {
            "bufferView" : 14,
            "componentType" : 5126,
            "count" : 396,
            "type" : "VEC2"
        },
        {
            "bufferView" : 15,
            "componentType" : 5126,
            "count" : 872,
            "max" : [
                -0.7181249856948853,
                0.6572269797325134,
                0.5502740144729614
            ],
            "min" : [
                -5.268589973449707,
                -1.5887130498886108,
                -1.2243399620056152
            ],
            "type" : "VEC3"
        },
        {
            "bufferView" : 16,
            "componentType" : 5126,
            "count" : 872,
            "type" : "VEC3"
        },
        {
            "bufferView" : 17,
            "componentType" : 5126,
            "count" : 872,
            "type" : "VEC2"
        },
        {
            "bufferView" : 18,
            "componentType" : 5123,
            "count" : 1572,
            "type" : "SCALAR"
        }
    ],
    "bufferViews" : [
        {
            "buffer" : 0,
            "byteLength" : 109584,
            "byteOffset" : 0
        },
        {
            "buffer" : 0,
            "byteLength" : 109584,
            "byteOffset" : 109584
        },
        {
            "buffer" : 0,
            "byteLength" : 73056,
            "byteOffset" : 219168
        },
        {
            "buffer" : 0,
            "byteLength" : 33360,
            "byteOffset" : 292224
        },
        {
            "buffer" : 0,
            "byteLength" : 65424,
            "byteOffset" : 325584
        },
        {
            "buffer" : 0,
            "byteLength" : 65424,
            "byteOffset" : 391008
        },
        {
            "buffer" : 0,
            "byteLength" : 43616,
            "byteOffset" : 456432
        },
        {
            "buffer" : 0,
            "byteLength" : 19656,
            "byteOffset" : 500048
        },
        {
            "buffer" : 0,
            "byteLength" : 4752,
            "byteOffset" : 519704
        },
        {
            "buffer" : 0,
            "byteLength" : 4752,
            "byteOffset" : 524456
        },
        {
            "buffer" : 0,
            "byteLength" : 3168,
            "byteOffset" : 529208
        },
        {
            "buffer" : 0,
            "byteLength" : 1248,
            "byteOffset" : 532376
        },
        {
            "buffer" : 0,
            "byteLength" : 4752,
            "byteOffset" : 533624
        },
        {
            "buffer" : 0,
            "byteLength" : 4752,
            "byteOffset" : 538376
        },
        {
            "buffer" : 0,
            "byteLength" : 3168,
            "byteOffset" : 543128
        },
        {
            "buffer" : 0,
            "byteLength" : 10464,
            "byteOffset" : 546296
        },
        {
            "buffer" : 0,
            "byteLength" : 10464,
            "byteOffset" : 556760
        },
        {
            "buffer" : 0,
            "byteLength" : 6976,
            "byteOffset" : 567224
        },
        {
            "buffer" : 0,
            "byteLength" : 3144,
            "byteOffset" : 574200
        }
    ],
    "buffers" : [
        {
            "byteLength" : 577344,
            "uri" : "data:application/octet-stream;base64,"
        }
    ]
}
