{
    "asset" : {
        "generator" : "Khronos glTF Blender I/O v1.3.48",
        "version" : "2.0"
    },
    "scene" : 0,
    "scenes" : [
        {
            "name" : "Scene",
            "nodes" : [
                0,
                1,
                2,
                3
            ]
        }
    ],
    "nodes" : [
        {
            "name" : "Light",
            "rotation" : [
                0.16907575726509094,
                0.7558803558349609,
                -0.27217137813568115,
                0.570947527885437
            ],
            "translation" : [
                4.076245307922363,
                5.903861999511719,
                -1.0054539442062378
            ]
        },
        {
            "name" : "Camera",
            "rotation" : [
                0.483536034822464,
                0.33687159419059753,
                -0.20870360732078552,
                0.7804827094078064
            ],
            "translation" : [
                7.358891487121582,
                4.958309173583984,
                6.925790786743164
            ]
        },
        {
            "mesh" : 0,
            "name" : "Text",
            "translation" : [
                -3.8674230575561523,
                0,
                0
            ]
        },
        {
            "mesh" : 1,
            "name" : "Text.001",
            "scale" : [
                0.6184830665588379,
                0.6184830665588379,
                0.6184830665588379
            ],
            "translation" : [
                -0.7195684909820557,
                0,
                -1.0180717706680298
            ]
        }
    ],
    "materials" : [
        {
            "doubleSided" : true,
            "emissiveFactor" : [
                0,
                0,
                0
            ],
            "name" : "Material.003",
            "pbrMetallicRoughness" : {
                "baseColorFactor" : [
                    0,
                    0.8000000715255737,
                    0.028811361640691757,
                    1
                ],
                "metallicFactor" : 0,
                "roughnessFactor" : 0.5
            }
        },
        {
            "doubleSided" : true,
            "emissiveFactor" : [
                0,
                0,
                0
            ],
            "name" : "Material.002",
            "pbrMetallicRoughness" : {
                "baseColorFactor" : [
                    0.800000011920929,
                    0.800000011920929,
                    0.800000011920929,
                    1
                ],
                "metallicFactor" : 0,
                "roughnessFactor" : 0.5
            }
        }
    ],
    "meshes" : [
        {
            "name" : "Text",
            "primitives" : [
                {
                    "attributes" : {
                        "POSITION" : 0,
                        "NORMAL" : 1,
                        "TEXCOORD_0" : 2
                    },
                    "indices" : 3,
                    "material" : 0
                }
            ]
        },
        {
            "name" : "Text.001",
            "primitives" : [
                {
                    "attributes" : {
                        "POSITION" : 4,
                        "NORMAL" : 5,
                        "TEXCOORD_0" : 6
                    },
                    "indices" : 7,
                    "material" : 1
                }
            ]
        }
    ],
    "accessors" : [
        {
            "bufferView" : 0,
            "componentType" : 5126,
            "count" : 9132,
            "max" : [
                8.201000213623047,
                0.03999999165534973,
                0.23000000417232513
            ],
            "min" : [
                0.20200000703334808,
                -0.03999999165534973,
                -0.6910000443458557
            ],
            "type" : "VEC3"
        },
        {
            "bufferView" : 1,
            "componentType" : 5126,
            "count" : 9132,
            "type" : "VEC3"
        },
        {
            "bufferView" : 2,
            "componentType" : 5126,
            "count" : 9132,
            "type" : "VEC2"
        },
        {
            "bufferView" : 3,
            "componentType" : 5123,
            "count" : 16680,
            "type" : "SCALAR"
        },
        {
            "bufferView" : 4,
            "componentType" : 5126,
            "count" : 3434,
            "max" : [
                2.434999942779541,
                0.03999999165534973,
                0.009000000543892384
            ],
            "min" : [
                0,
                -0.03999999165534973,
                -0.6820000410079956
            ],
            "type" : "VEC3"
        },
        {
            "bufferView" : 5,
            "componentType" : 5126,
            "count" : 3434,
            "type" : "VEC3"
        },
        {
            "bufferView" : 6,
            "componentType" : 5126,
            "count" : 3434,
            "type" : "VEC2"
        },
        {
            "bufferView" : 7,
            "componentType" : 5123,
            "count" : 6324,
            "type" : "SCALAR"
        }
    ],
    "bufferViews" : [
        {
            "buffer" : 0,
            "byteLength" : 109584,
            "byteOffset" : 0
        },
        {
            "buffer" : 0,
            "byteLength" : 109584,
            "byteOffset" : 109584
        },
        {
            "buffer" : 0,
            "byteLength" : 73056,
            "byteOffset" : 219168
        },
        {
            "buffer" : 0,
            "byteLength" : 33360,
            "byteOffset" : 292224
        },
        {
            "buffer" : 0,
            "byteLength" : 41208,
            "byteOffset" : 325584
        },
        {
            "buffer" : 0,
            "byteLength" : 41208,
            "byteOffset" : 366792
        },
        {
            "buffer" : 0,
            "byteLength" : 27472,
            "byteOffset" : 408000
        },
        {
            "buffer" : 0,
            "byteLength" : 12648,
            "byteOffset" : 435472
        }
    ],
    "buffers" : [
        {
            "byteLength" : 448120,
            "uri" : "data:application/octet-stream;base64,"
        }
    ]
}
