{
    "asset" : {
        "generator" : "Khronos glTF Blender I/O v1.3.48",
        "version" : "2.0"
    },
    "scene" : 0,
    "scenes" : [
        {
            "name" : "Scene",
            "nodes" : [
                0,
                1,
                2,
                3,
                4
            ]
        }
    ],
    "nodes" : [
        {
            "name" : "Light",
            "rotation" : [
                0.16907575726509094,
                0.7558803558349609,
                -0.27217137813568115,
                0.570947527885437
            ],
            "translation" : [
                4.076245307922363,
                5.903861999511719,
                -1.0054539442062378
            ]
        },
        {
            "name" : "Camera",
            "rotation" : [
                0.483536034822464,
                0.33687159419059753,
                -0.20870360732078552,
                0.7804827094078064
            ],
            "translation" : [
                7.358891487121582,
                4.958309173583984,
                6.925790786743164
            ]
        },
        {
            "mesh" : 0,
            "name" : "Text",
            "translation" : [
                -3.2688028812408447,
                0,
                0
            ]
        },
        {
            "mesh" : 1,
            "name" : "GasCylinder",
            "rotation" : [
                -0.7071068286895752,
                0,
                0,
                0.7071068286895752
            ],
            "scale" : [
                0.2884647250175476,
                0.2884647250175476,
                0.2884647250175476
            ],
            "translation" : [
                2.7632007598876953,
                -0.029245376586914062,
                -0.41827601194381714
            ]
        },
        {
            "mesh" : 2,
            "name" : "Text.001",
            "scale" : [
                0.48804885149002075,
                0.48804885149002075,
                0.48804885149002075
            ],
            "translation" : [
                1.7243669033050537,
                0,
                0.2045133113861084
            ]
        }
    ],
    "materials" : [
        {
            "doubleSided" : true,
            "emissiveFactor" : [
                0,
                0,
                0
            ],
            "name" : "Material.002",
            "pbrMetallicRoughness" : {
                "baseColorFactor" : [
                    0.800000011920929,
                    0.800000011920929,
                    0.800000011920929,
                    1
                ],
                "metallicFactor" : 0,
                "roughnessFactor" : 0.5
            }
        },
        {
            "doubleSided" : true,
            "emissiveFactor" : [
                0,
                0,
                0
            ],
            "name" : "Material.003",
            "pbrMetallicRoughness" : {
                "baseColorFactor" : [
                    0.800000011920929,
                    0.800000011920929,
                    0.800000011920929,
                    1
                ],
                "metallicFactor" : 0,
                "roughnessFactor" : 0.5
            }
        },
        {
            "doubleSided" : true,
            "emissiveFactor" : [
                0,
                0,
                0
            ],
            "name" : "Material.004",
            "pbrMetallicRoughness" : {
                "baseColorFactor" : [
                    0.800000011920929,
                    0.800000011920929,
                    0.800000011920929,
                    1
                ],
                "metallicFactor" : 0,
                "roughnessFactor" : 0.5
            }
        }
    ],
    "meshes" : [
        {
            "name" : "Text",
            "primitives" : [
                {
                    "attributes" : {
                        "POSITION" : 0,
                        "NORMAL" : 1,
                        "TEXCOORD_0" : 2
                    },
                    "indices" : 3,
                    "material" : 0
                }
            ]
        },
        {
            "name" : "Cylinder.001",
            "primitives" : [
                {
                    "attributes" : {
                        "POSITION" : 4,
                        "NORMAL" : 5,
                        "TEXCOORD_0" : 6
                    },
                    "indices" : 7,
                    "material" : 1
                }
            ]
        },
        {
            "name" : "Text.002",
            "primitives" : [
                {
                    "attributes" : {
                        "POSITION" : 8,
                        "NORMAL" : 9,
                        "TEXCOORD_0" : 10
                    },
                    "indices" : 11,
                    "material" : 2
                }
            ]
        }
    ],
    "accessors" : [
        {
            "bufferView" : 0,
            "componentType" : 5126,
            "count" : 4937,
            "max" : [
                4.969000339508057,
                0.03999999165534973,
                0.23000000417232513
            ],
            "min" : [
                0.20200000703334808,
                -0.03999999165534973,
                -0.6914074420928955
            ],
            "type" : "VEC3"
        },
        {
            "bufferView" : 1,
            "componentType" : 5126,
            "count" : 4937,
            "type" : "VEC3"
        },
        {
            "bufferView" : 2,
            "componentType" : 5126,
            "count" : 4937,
            "type" : "VEC2"
        },
        {
            "bufferView" : 3,
            "componentType" : 5123,
            "count" : 8880,
            "type" : "SCALAR"
        },
        {
            "bufferView" : 4,
            "componentType" : 5126,
            "count" : 1293,
            "max" : [
                1.0999478101730347,
                2.3582875728607178,
                1.0999478101730347
            ],
            "min" : [
                -1.0999478101730347,
                -2.215136766433716,
                -1.0999478101730347
            ],
            "type" : "VEC3"
        },
        {
            "bufferView" : 5,
            "componentType" : 5126,
            "count" : 1293,
            "type" : "VEC3"
        },
        {
            "bufferView" : 6,
            "componentType" : 5126,
            "count" : 1293,
            "type" : "VEC2"
        },
        {
            "bufferView" : 7,
            "componentType" : 5123,
            "count" : 4608,
            "type" : "SCALAR"
        },
        {
            "bufferView" : 8,
            "componentType" : 5126,
            "count" : 599,
            "max" : [
                0.4660000205039978,
                0.03999999165534973,
                0
            ],
            "min" : [
                0.03400000184774399,
                -0.03999999165534973,
                -0.6910000443458557
            ],
            "type" : "VEC3"
        },
        {
            "bufferView" : 9,
            "componentType" : 5126,
            "count" : 599,
            "type" : "VEC3"
        },
        {
            "bufferView" : 10,
            "componentType" : 5126,
            "count" : 599,
            "type" : "VEC2"
        },
        {
            "bufferView" : 11,
            "componentType" : 5123,
            "count" : 1056,
            "type" : "SCALAR"
        }
    ],
    "bufferViews" : [
        {
            "buffer" : 0,
            "byteLength" : 59244,
            "byteOffset" : 0
        },
        {
            "buffer" : 0,
            "byteLength" : 59244,
            "byteOffset" : 59244
        },
        {
            "buffer" : 0,
            "byteLength" : 39496,
            "byteOffset" : 118488
        },
        {
            "buffer" : 0,
            "byteLength" : 17760,
            "byteOffset" : 157984
        },
        {
            "buffer" : 0,
            "byteLength" : 15516,
            "byteOffset" : 175744
        },
        {
            "buffer" : 0,
            "byteLength" : 15516,
            "byteOffset" : 191260
        },
        {
            "buffer" : 0,
            "byteLength" : 10344,
            "byteOffset" : 206776
        },
        {
            "buffer" : 0,
            "byteLength" : 9216,
            "byteOffset" : 217120
        },
        {
            "buffer" : 0,
            "byteLength" : 7188,
            "byteOffset" : 226336
        },
        {
            "buffer" : 0,
            "byteLength" : 7188,
            "byteOffset" : 233524
        },
        {
            "buffer" : 0,
            "byteLength" : 4792,
            "byteOffset" : 240712
        },
        {
            "buffer" : 0,
            "byteLength" : 2112,
            "byteOffset" : 245504
        }
    ],
    "buffers" : [
        {
            "byteLength" : 247616,
            "uri" : "data:application/octet-stream;base64,"
        }
    ]
}
